<svg xmlns="http://www.w3.org/2000/svg" viewBox="0 0 512 512" fill="none" role="img" aria-label="PostPylot">
  <defs>
    <linearGradient id="pp-grad" x1="120" y1="400" x2="400" y2="120" gradientUnits="userSpaceOnUse">
      <stop stop-color="#C8FF00"/>
      <stop offset="1" stop-color="#E8FF66"/>
    </linearGradient>
  </defs>
  <!-- Maskable: full-bleed bg, mark inset for safe zone -->
  <rect width="512" height="512" fill="#0A0A0A"/>
  <g transform="translate(128 128) scale(4)">
    <path
      fill="url(#pp-grad)"
      fill-rule="evenodd"
      d="M16 10c0-2.2 1.8-4 4-4h11c10.5 0 19 8.5 19 19s-8.5 19-19 19h-7v10c0 2.2-1.8 4-4 4s-4-1.8-4-4V10Zm15 26c6.1 0 11-4.9 11-11s-4.9-11-11-11H24v22h7Z"
    />
    <circle cx="48.5" cy="15.5" r="4" fill="url(#pp-grad)"/>
    <circle cx="48.5" cy="15.5" r="1.75" fill="#0A0A0A"/>
    <path
      stroke="url(#pp-grad)"
      stroke-width="2.75"
      stroke-linecap="round"
      d="M52.5 23c2.6 3.1 4.2 7 4.2 11.3"
      opacity="0.9"
    />
    <path
      stroke="url(#pp-grad)"
      stroke-width="2.75"
      stroke-linecap="round"
      d="M56.2 20.2c3.4 3.9 5.5 8.9 5.5 14.4"
      opacity="0.4"
    />
  </g>
</svg>
